<svg data-v-fde0c5aa="" xmlns="http://www.w3.org/2000/svg" viewBox="0 0 300 300" class="iconAbove"><!----><defs data-v-fde0c5aa=""><!----></defs><rect data-v-fde0c5aa="" fill="transparent" x="0" y="0" width="300px" height="300px" class="logo-background-square"></rect><defs data-v-fde0c5aa=""><!----></defs><g data-v-fde0c5aa="" id="487566e3-46c6-43e6-8bf6-00582598aa76" fill="#000000" transform="matrix(3.0310096740722656,0,0,3.0310096740722656,15.84751683016174,168.45933525096953)"><path d="M1.37 13.65L6.87 13.65L6.87 12.60L2.59 12.60L2.59 4.40L1.37 4.40ZM8.08 5.00C8.08 5.43 8.40 5.75 8.83 5.75C9.25 5.75 9.59 5.43 9.59 5.00C9.59 4.58 9.25 4.24 8.83 4.24C8.40 4.24 8.08 4.58 8.08 5.00ZM8.29 13.65L9.41 13.65L9.41 7.22L8.29 7.22ZM11.56 13.65L12.68 13.65L12.68 10.22C12.81 9.65 13.33 7.99 14.77 7.99C15.44 7.99 15.78 8.36 15.78 9.32L15.78 13.65L16.90 13.65L16.90 9.00C16.90 7.63 16.04 7.03 14.95 7.03C13.44 7.03 12.84 8.06 12.64 8.50L12.64 7.22L11.56 7.22ZM22.86 13.65L24.30 13.65L21.43 10.12L24.35 7.22L22.90 7.22L20.40 9.72L20.12 9.72L20.12 3.60L19.00 3.60L19.00 13.65L20.12 13.65L20.12 10.61L20.43 10.61ZM30.62 10.61L30.62 9.91C30.62 7.95 29.71 7.03 28.01 7.03C25.77 7.03 25.05 8.75 25.05 10.47C25.05 12.78 26.14 13.85 28.04 13.85C29.46 13.85 30.30 13.16 30.62 12.01L29.64 11.82C29.46 12.40 28.91 12.92 28.07 12.92C26.60 12.92 26.26 11.80 26.25 10.61ZM27.99 7.95C28.99 7.95 29.46 8.61 29.46 9.46L29.46 9.72L26.29 9.72C26.46 8.50 27.09 7.95 27.99 7.95ZM36.88 13.65L37.83 13.65L37.83 3.60L36.71 3.60L36.71 7.76C36.32 7.32 35.66 7.03 34.82 7.03C32.94 7.03 32.00 8.50 32.00 10.54C32.00 12.10 32.58 13.85 34.58 13.85C35.69 13.85 36.41 13.34 36.79 12.63ZM34.82 12.92C33.40 12.92 33.21 11.48 33.21 10.47C33.21 8.85 33.71 7.95 34.92 7.95C36.47 7.95 36.71 9.38 36.71 10.26C36.71 11.68 36.11 12.92 34.82 12.92ZM47.14 13.85C49.90 13.85 51.32 11.76 51.32 8.89C51.32 5.92 49.80 4.20 47.21 4.20C44.48 4.20 43.05 6.13 43.05 9.00C43.05 11.80 44.41 13.85 47.14 13.85ZM47.14 12.84C45.51 12.84 44.39 11.79 44.39 9.06C44.39 6.38 45.47 5.21 47.21 5.21C48.90 5.21 49.98 6.33 49.98 8.96C49.98 11.59 48.90 12.84 47.14 12.84ZM53.13 13.65L54.07 13.65L54.12 12.80C54.46 13.38 55.02 13.85 56.10 13.85C58.03 13.85 58.90 12.24 58.90 10.22C58.90 8.64 58.20 7.03 56.21 7.03C55.29 7.03 54.64 7.52 54.25 8.04L54.25 3.60L53.13 3.60ZM56.07 12.92C54.96 12.92 54.26 11.93 54.26 10.49C54.26 9.04 54.94 7.95 56.11 7.95C57.09 7.95 57.69 8.71 57.69 10.30C57.69 11.79 57.25 12.92 56.07 12.92ZM60.45 5.00C60.45 5.43 60.77 5.75 61.21 5.75C61.63 5.75 61.96 5.43 61.96 5.00C61.96 4.58 61.63 4.24 61.21 4.24C60.77 4.24 60.45 4.58 60.45 5.00ZM58.79 17.04C61.47 17.11 61.78 15.01 61.78 13.33L61.78 7.22L60.66 7.22L60.66 12.95C60.66 15.04 60.38 16.09 58.79 16.09ZM69.12 10.61L69.12 9.91C69.12 7.95 68.21 7.03 66.51 7.03C64.27 7.03 63.55 8.75 63.55 10.47C63.55 12.78 64.64 13.85 66.54 13.85C67.96 13.85 68.80 13.16 69.12 12.01L68.14 11.82C67.96 12.40 67.41 12.92 66.57 12.92C65.10 12.92 64.76 11.80 64.75 10.61ZM66.49 7.95C67.49 7.95 67.96 8.61 67.96 9.46L67.96 9.72L64.79 9.72C64.96 8.50 65.59 7.95 66.49 7.95ZM74.84 11.82C74.70 12.43 74.17 12.92 73.30 12.92C72.41 12.92 71.71 12.24 71.71 10.44C71.71 9.17 72.09 7.95 73.37 7.95C74.17 7.95 74.75 8.22 74.68 9.24L75.80 9.04C75.94 7.73 74.89 7.03 73.37 7.03C71.86 7.03 70.50 7.87 70.50 10.42C70.50 12.57 71.48 13.85 73.29 13.85C74.75 13.85 75.52 13.13 75.84 12.01ZM76.78 8.12L77.87 8.12L77.87 11.76C77.87 12.78 78.18 13.79 79.45 13.79C80.42 13.79 80.86 13.22 81.16 12.50L80.30 12.12C80.16 12.63 79.94 12.87 79.59 12.87C79.14 12.87 78.99 12.50 78.99 11.70L78.99 8.12L80.81 8.12L80.81 7.22L78.99 7.22L78.99 5.32L77.97 5.32L77.90 7.22L76.78 7.22ZM82.03 11.86C81.89 13.27 83.31 13.85 84.62 13.85C86.09 13.85 87.15 13.12 87.15 11.84C87.15 9.46 83.38 10.36 83.38 8.75C83.38 8.20 83.86 7.95 84.59 7.95C85.74 7.95 85.90 8.64 85.82 9.09L86.94 8.89C87.16 7.64 86.00 7.03 84.64 7.03C83.02 7.03 82.24 7.87 82.24 8.95C82.24 11.28 85.97 10.49 85.97 12.05C85.97 12.64 85.40 12.92 84.57 12.92C83.50 12.92 83.02 12.38 83.09 11.69Z"></path></g><defs data-v-fde0c5aa=""><linearGradient data-v-fde0c5aa="" gradientTransform="rotate(25)" id="24e2610f-bcfc-443d-a26b-d5d0b6a6639b" x1="0%" y1="0%" x2="100%" y2="0%"><stop data-v-fde0c5aa="" offset="0%" stop-color="#B4373D" stop-opacity="1"></stop><stop data-v-fde0c5aa="" offset="100%" stop-color="#B23ACB" stop-opacity="1"></stop></linearGradient></defs><g data-v-fde0c5aa="" id="5e88cd60-f242-4efd-a65b-b04baf82875a" stroke="none" fill="url(#24e2610f-bcfc-443d-a26b-d5d0b6a6639b)" transform="matrix(2.5463712215423584,0,0,2.5463712215423584,109.25806093838887,79.88709140758328)"><path d="M4.029 14.362L14.362 4.028l.707.707L4.736 15.07zM17.135 27.47L27.47 17.135l.707.707-10.333 10.333zM4.029 17.841l.707-.707 10.333 10.334-.707.707zM17.135 4.735l.708-.707L28.176 14.36l-.707.707z"></path><g><path d="M16 1.414l1.683 1.683L16 4.779l-1.683-1.683L16 1.414M16 0l-3.097 3.097L16 6.194l3.097-3.097L16 0zM16 27.221l1.683 1.683L16 30.586l-1.683-1.683L16 27.221m0-1.415l-3.097 3.097L16 32l3.097-3.097L16 25.806zM3.097 14.317L4.779 16l-1.683 1.683L1.414 16l1.683-1.683m0-1.414L0 16l3.097 3.097L6.194 16l-3.097-3.097zM28.903 14.317L30.586 16l-1.683 1.683L27.221 16l1.682-1.683m0-1.414L25.806 16l3.097 3.097L32 16l-3.097-3.097z"></path></g></g><!----></svg>
